<?xml version="1.0" standalone="no"?>
<!DOCTYPE svg PUBLIC "-//W3C//DTD SVG 20010904//EN"
 "http://www.w3.org/TR/2001/REC-SVG-20010904/DTD/svg10.dtd">
<svg version="1.0" xmlns="http://www.w3.org/2000/svg"
 width="512.000000pt" height="512.000000pt" viewBox="0 0 512.000000 512.000000"
 preserveAspectRatio="xMidYMid meet">
<metadata>
Created by potrace 1.14, written by Peter Selinger 2001-2017
</metadata>
<g transform="translate(0.000000,512.000000) scale(0.100000,-0.100000)"
fill="#000000" stroke="none">
<path d="M2477 5028 c-69 -15 -135 -57 -274 -175 -76 -65 -140 -120 -143 -123
-3 -3 -34 -30 -70 -60 -36 -30 -67 -57 -70 -60 -21 -22 -153 -130 -158 -130
-7 0 -47 63 -72 112 -19 38 -50 66 -83 72 -31 5 -75 -26 -98 -71 -8 -16 -25
-47 -37 -70 l-22 -43 -55 31 c-269 152 -595 -32 -598 -336 l0 -70 -96 1 c-92
1 -97 0 -123 -27 -16 -15 -28 -38 -28 -51 0 -20 47 -107 217 -399 40 -70 48
-90 41 -110 -13 -34 -2 -138 20 -197 15 -39 224 -357 252 -382 3 -3 10 -13 15
-22 6 -10 105 -153 220 -318 190 -272 304 -435 401 -575 19 -27 66 -95 105
-150 97 -139 95 -132 61 -149 -45 -23 -90 -75 -107 -124 -12 -36 -15 -93 -15
-266 0 -192 3 -226 19 -261 53 -117 172 -175 288 -140 24 7 43 11 43 8 0 -3
-43 -179 -95 -391 -64 -258 -94 -396 -89 -414 12 -58 7 -58 644 -58 564 0 581
1 600 20 11 11 22 30 25 43 4 13 -14 103 -40 208 -26 101 -48 191 -50 199 -2
8 -22 92 -45 185 -59 238 -58 215 -8 200 109 -32 227 18 281 119 21 38 22 56
25 269 4 290 -6 328 -111 399 l-37 25 42 59 c22 32 64 93 93 134 62 91 206
297 390 560 447 638 545 784 561 833 12 33 19 85 20 144 1 88 3 94 41 160 23
37 50 84 61 103 11 19 49 87 86 150 36 63 66 125 66 137 0 12 -11 35 -24 50
-23 27 -28 28 -123 29 l-98 1 -2 69 c-1 43 -10 91 -23 127 -21 55 -75 137
-109 165 -137 112 -314 129 -464 44 l-56 -31 -39 72 c-47 86 -72 110 -112 110
-40 0 -63 -23 -114 -115 l-42 -78 -230 196 c-126 108 -254 218 -284 245 -84
75 -180 119 -265 123 -39 1 -87 -1 -108 -6z"/>
</g>
</svg>
